HIERARCHY
ROOT Hips
{
    OFFSET 0.000000 0.000000 0.000000
    CHANNELS 6 Xposition Yposition Zposition Zrotation Xrotation Yrotation
    JOINT Spine
    {
        OFFSET -0.000000 7.236184 0.000000
        CHANNELS 3 Zrotation Xrotation Yrotation
        JOINT Spine1
        {
            OFFSET -0.000000 20.420147 0.000000
            CHANNELS 3 Zrotation Xrotation Yrotation
            JOINT Neck
            {
                OFFSET -0.000000 20.336288 1.848754
                CHANNELS 3 Zrotation Xrotation Yrotation
                JOINT Head
                {
                    OFFSET -0.000000 12.354461 -1.764923
                    CHANNELS 3 Zrotation Xrotation Yrotation
                    End Site
                    {
                        OFFSET -0.000000 22.061537 0.000000
                    }
                }
            }
            JOINT LeftShoulder
            {
                OFFSET 3.573296 18.396038 -0.314103
                CHANNELS 3 Zrotation Xrotation Yrotation
                JOINT LeftArm
                {
                    OFFSET 10.880760 0.000000 0.000000
                    CHANNELS 3 Zrotation Xrotation Yrotation
                    JOINT LeftForeArm
                    {
                        OFFSET 27.185530 0.000000 0.000000
                        CHANNELS 3 Zrotation Xrotation Yrotation
                        JOINT LeftHand
                        {
                            OFFSET 27.825975 0.000000 0.000000
                            CHANNELS 3 Zrotation Xrotation Yrotation
                            End Site
                            {
                                OFFSET 13.236923 0.000000 0.000000
                            }
                        }
                    }
                }
            }
            JOINT RightShoulder
            {
                OFFSET -3.474926 18.396038 -0.314103
                CHANNELS 3 Zrotation Xrotation Yrotation
                JOINT RightArm
                {
                    OFFSET -10.880760 0.000000 0.000000
                    CHANNELS 3 Zrotation Xrotation Yrotation
                    JOINT RightForeArm
                    {
                        OFFSET -27.185530 0.000000 0.000000
                        CHANNELS 3 Zrotation Xrotation Yrotation
                        JOINT RightHand
                        {
                            OFFSET -27.825975 0.000000 0.000000
                            CHANNELS 3 Zrotation Xrotation Yrotation
                            End Site
                            {
                                OFFSET -13.236923 0.000000 0.000000
                            }
                        }
                    }
                }
            }
        }
    }
    JOINT LeftUpLeg
    {
        OFFSET 8.824615 0.000000 0.000000
        CHANNELS 3 Zrotation Xrotation Yrotation
        JOINT LeftLeg
        {
            OFFSET -0.000000 -35.111282 0.000000
            CHANNELS 3 Zrotation Xrotation Yrotation
            JOINT LeftFoot
            {
                OFFSET -0.000000 -42.324711 0.000000
                CHANNELS 3 Zrotation Xrotation Yrotation
                JOINT LeftToeBase
                {
                    OFFSET -0.000000 -5.735999 13.236923
                    CHANNELS 3 Zrotation Xrotation Yrotation
                    End Site
                    {
                        OFFSET -0.000000 0.000000 3.529846
                    }
                }
            }
        }
    }
    JOINT RightUpLeg
    {
        OFFSET -8.824615 0.000000 0.000000
        CHANNELS 3 Zrotation Xrotation Yrotation
        JOINT RightLeg
        {
            OFFSET -0.000000 -35.111282 0.000000
            CHANNELS 3 Zrotation Xrotation Yrotation
            JOINT RightFoot
            {
                OFFSET -0.000000 -42.324711 0.000000
                CHANNELS 3 Zrotation Xrotation Yrotation
                JOINT RightToeBase
                {
                    OFFSET -0.000000 -5.735999 13.236923
                    CHANNELS 3 Zrotation Xrotation Yrotation
                    End Site
                    {
                        OFFSET -0.000000 0.000000 3.529846
                    }
                }
            }
        }
    }
}
MOTION
Frames:    7
Frame Time:    0.008333
-16.224047    82.044960    110.661865    -0.864232    -7.135889    -175.700119    -2.772793    -11.486692    0.215139    0.553401    6.446198    0.463026    1.444749    7.837370    -4.295705    8.062990    -5.080740    -3.083652    -0.292197    17.466927    -2.517425    -39.116554    48.483116    -44.812000    -0.783096    -5.076997    -17.480736    17.696280    -4.955216    1.558649    7.548933    18.467104    -5.415844    33.617119    50.048840    44.253098    -2.285923    -8.915908    21.626694    -16.696321    -8.275261    -1.439553    -2.140868    -11.697197    -7.326641    -0.371503    19.305553    0.575639    -1.382367    -11.941799    -8.288369    -0.275854    -0.055009    0.305805    -1.616630    -4.484115    2.633727    3.064564    8.167494    4.003513    -2.489690    -7.806643    -15.921745    -1.028702    -0.373088    1.113188    
-16.223429    82.045540    110.658409    -0.864540    -7.175446    -175.720047    -2.775721    -11.459252    0.220538    0.560994    6.430070    0.467590    1.431086    7.813935    -4.308597    8.063205    -5.119352    -3.093638    -0.306098    17.451389    -2.562558    -39.027637    48.550503    -44.883808    -0.772356    -5.112932    -17.546768    17.789713    -4.996386    1.509224    7.570858    18.490269    -5.356967    33.490921    50.071854    44.371864    -2.236285    -8.894957    21.659079    -16.718290    -8.264152    -1.429763    -2.160442    -11.748786    -7.320968    -0.341448    19.338375    0.573674    -1.399686    -11.954547    -8.284661    -0.274345    -0.054349    0.304132    -1.614390    -4.538128    2.646793    3.059707    8.194860    4.014893    -2.487940    -7.818892    -15.928538    -1.027608    -0.373525    1.112006    
-16.222851    82.046150    110.654770    -0.864755    -7.214617    -175.739517    -2.778191    -11.431952    0.225638    0.568083    6.414055    0.472118    1.418096    7.790593    -4.321135    8.062533    -5.158299    -3.103448    -0.319056    17.435162    -2.607708    -38.942093    48.616985    -44.952255    -0.761478    -5.150986    -17.616371    17.887480    -5.040083    1.457141    7.592340    18.513174    -5.298916    33.366287    50.095200    44.489098    -2.188819    -8.878571    21.693850    -16.739584    -8.257552    -1.417598    -2.179080    -11.799349    -7.316206    -0.313081    19.370060    0.572155    -1.416171    -11.967116    -8.280413    -0.272706    -0.053654    0.302314    -1.612157    -4.590881    2.660178    3.055110    8.220907    4.025852    -2.486488    -7.830781    -15.935642    -1.026544    -0.373986    1.110855    
-16.222330    82.046829    110.650787    -0.864637    -7.252643    -175.757965    -2.779830    -11.405073    0.230486    0.574652    6.398328    0.476127    1.406032    7.767323    -4.332946    8.060532    -5.197074    -3.112811    -0.330351    17.418198    -2.652393    -38.863968    48.681137    -45.013641    -0.750066    -5.193121    -17.692146    17.992647    -5.088593    1.400154    7.612656    18.535353    -5.243075    33.247009    50.118340    44.601471    -2.145419    -8.869843    21.732872    -16.759310    -8.258459    -1.401171    -2.195692    -11.847607    -7.312961    -0.287969    19.399693    0.570875    -1.431080    -11.979397    -8.274911    -0.271113    -0.052481    0.300547    -1.609741    -4.640682    2.673952    3.050905    8.244228    4.035392    -2.485362    -7.841911    -15.942598    -1.025573    -0.374448    1.109803    
-16.221882    82.047607    110.646347    -0.863998    -7.289297    -175.774933    -2.780129    -11.378734    0.234744    0.580106    6.383060    0.479519    1.395579    7.744153    -4.343663    8.056517    -5.235951    -3.121550    -0.339165    17.399778    -2.696698    -38.797028    48.742153    -45.064243    -0.738309    -5.241524    -17.777582    18.110287    -5.144563    1.335417    7.631708    18.556129    -5.189839    33.134670    50.141949    44.707169    -2.107696    -8.870397    21.778440    -16.776150    -8.268175    -1.380195    -2.210117    -11.893166    -7.310794    -0.265897    19.426954    0.569559    -1.444326    -11.991260    -8.268641    -0.269324    -0.051420    0.298564    -1.606899    -4.686811    2.687691    3.046928    8.263996    4.042505    -2.484203    -7.852006    -15.948253    -1.024623    -0.374928    1.108777    
-16.221521    82.048531    110.641251    -0.862758    -7.324615    -175.790283    -2.778976    -11.352822    0.238349    0.584503    6.368214    0.482115    1.386680    7.720625    -4.353208    8.050466    -5.274925    -3.129548    -0.345315    17.379696    -2.740831    -38.743343    48.799858    -45.101608    -0.725569    -5.299471    -17.876530    18.244934    -5.211709    1.259546    7.649498    18.575516    -5.139402    33.029949    50.165558    44.805374    -2.075999    -8.880067    21.832945    -16.789474    -8.286469    -1.354526    -2.222677    -11.935778    -7.308562    -0.245675    19.451550    0.567152    -1.456552    -12.002542    -8.262187    -0.267515    -0.049631    0.296557    -1.603593    -4.728900    2.701496    3.043211    8.279736    4.046463    -2.483003    -7.861011    -15.952077    -1.023707    -0.375645    1.107787    
-16.221241    82.049606    110.635445    -0.860573    -7.358146    -175.803574    -2.775738    -11.327154    0.241014    0.587322    6.353643    0.483792    1.379891    7.696350    -4.361227    8.041872    -5.313111    -3.136683    -0.348148    17.358101    -2.783962    -38.705074    48.854008    -45.123779    -0.711251    -5.370178    -17.991932    18.400181    -5.293651    1.169617    7.666017    18.593157    -5.092789    32.933819    50.188969    44.895153    -2.050822    -8.898024    21.898314    -16.798210    -8.312300    -1.324801    -2.233079    -11.974839    -7.305331    -0.226762    19.473236    0.562810    -1.467820    -12.013063    -8.256023    -0.265584    -0.048269    0.294416    -1.599469    -4.766079    2.715096    3.039718    8.290795    4.046869    -2.481452    -7.868796    -15.953684    -1.022842    -0.376048    1.106851    
